<?xml version="1.0" encoding="iso-8859-1"?>
<!-- Uploaded to: SVG Repo, www.svgrepo.com, Generator: SVG Repo Mixer Tools -->
<svg fill="#000000" height="800px" width="800px" version="1.1" id="Layer_1" xmlns="http://www.w3.org/2000/svg" xmlns:xlink="http://www.w3.org/1999/xlink" 
	 viewBox="0 0 511.328 511.328" xml:space="preserve">
<g>
	<g>
		<path d="M255.664,0C140.768,0,47.296,114.688,47.296,255.664s93.472,255.664,208.368,255.664S464.032,396.64,464.032,255.664
			S370.56,0,255.664,0z M255.664,479.328c-97.248,0-176.368-100.336-176.368-223.664S158.416,32,255.664,32
			s176.368,100.336,176.368,223.664S352.912,479.328,255.664,479.328z"/>
	</g>
</g>
<g>
	<g>
		<path d="M255.664,48c-88.432,0-160.368,93.152-160.368,207.664c0,114.496,71.936,207.664,160.368,207.664
			s160.368-93.168,160.368-207.664C416.032,141.152,344.096,48,255.664,48z M255.664,431.328
			c-70.768,0-128.368-78.8-128.368-175.664S184.88,80,255.664,80s128.368,78.8,128.368,175.664S326.432,431.328,255.664,431.328z"/>
	</g>
</g>
</svg>